<svg xmlns="http://www.w3.org/2000/svg" xmlns:xlink="http://www.w3.org/1999/xlink" width="150" zoomAndPan="magnify" viewBox="0 0 112.5 30.000001" height="40" preserveAspectRatio="xMidYMid meet" version="1.0"><defs><g/></defs><g fill="#f5f6f6" fill-opacity="1"><g transform="translate(6.709928, 20.612883)"><g><path d="M 5.796875 -5.9375 C 5.796875 -6.332031 5.726562 -6.707031 5.59375 -7.0625 C 5.46875 -7.414062 5.285156 -7.671875 5.046875 -7.828125 C 4.242188 -7.609375 3.554688 -6.988281 2.984375 -5.96875 C 2.410156 -4.957031 2.125 -4.003906 2.125 -3.109375 C 2.125 -2.222656 2.34375 -1.664062 2.78125 -1.4375 C 3.613281 -1.601562 4.320312 -2.175781 4.90625 -3.15625 C 5.5 -4.132812 5.796875 -5.0625 5.796875 -5.9375 Z M 1.21875 -5.78125 C 1.625 -6.6875 2.15625 -7.429688 2.8125 -8.015625 C 3.46875 -8.597656 4.140625 -8.890625 4.828125 -8.890625 C 5.515625 -8.890625 6.09375 -8.597656 6.5625 -8.015625 C 7.03125 -7.429688 7.265625 -6.71875 7.265625 -5.875 C 7.265625 -5.03125 7.0625 -4.171875 6.65625 -3.296875 C 6.25 -2.421875 5.6875 -1.695312 4.96875 -1.125 C 4.257812 -0.550781 3.503906 -0.265625 2.703125 -0.265625 C 2.109375 -0.265625 1.613281 -0.535156 1.21875 -1.078125 C 0.820312 -1.617188 0.625 -2.3125 0.625 -3.15625 C 0.625 -4 0.820312 -4.875 1.21875 -5.78125 Z M 1.21875 -5.78125 "/></g></g></g><g fill="#f5f6f6" fill-opacity="1"><g transform="translate(14.595774, 20.612883)"><g><path d="M 2.484375 -2 C 2.484375 -1.78125 2.613281 -1.671875 2.875 -1.671875 C 3.3125 -1.671875 3.847656 -1.796875 4.484375 -2.046875 C 5.117188 -2.296875 5.46875 -2.421875 5.53125 -2.421875 C 5.738281 -2.421875 5.84375 -2.3125 5.84375 -2.09375 C 5.84375 -1.75 5.5 -1.359375 4.8125 -0.921875 C 4.125 -0.484375 3.5 -0.265625 2.9375 -0.265625 C 2.375 -0.265625 1.90625 -0.414062 1.53125 -0.71875 C 1.15625 -1.03125 0.96875 -1.347656 0.96875 -1.671875 C 0.96875 -1.992188 1.035156 -2.40625 1.171875 -2.90625 C 1.316406 -3.414062 1.519531 -4.082031 1.78125 -4.90625 C 2.039062 -5.738281 2.25 -6.429688 2.40625 -6.984375 C 1.851562 -6.847656 1.484375 -6.78125 1.296875 -6.78125 C 1.117188 -6.78125 0.9375 -6.875 0.75 -7.0625 C 0.570312 -7.257812 0.484375 -7.445312 0.484375 -7.625 C 0.484375 -7.90625 1.238281 -8.171875 2.75 -8.421875 C 2.957031 -9.390625 3.0625 -10.242188 3.0625 -10.984375 C 3.0625 -11.328125 3.175781 -11.5 3.40625 -11.5 C 3.601562 -11.5 3.847656 -11.375 4.140625 -11.125 C 4.429688 -10.875 4.578125 -10.59375 4.578125 -10.28125 C 4.578125 -9.96875 4.476562 -9.421875 4.28125 -8.640625 C 4.945312 -8.691406 5.472656 -8.71875 5.859375 -8.71875 C 6.554688 -8.71875 6.90625 -8.566406 6.90625 -8.265625 C 6.90625 -8.085938 6.71875 -7.941406 6.34375 -7.828125 C 5.96875 -7.710938 5.175781 -7.535156 3.96875 -7.296875 C 3.726562 -6.378906 3.421875 -5.332031 3.046875 -4.15625 C 2.671875 -2.976562 2.484375 -2.257812 2.484375 -2 Z M 2.484375 -2 "/></g></g></g><g fill="#f5f6f6" fill-opacity="1"><g transform="translate(21.332697, 20.612883)"><g><path d="M 5.171875 -8.890625 C 5.691406 -8.890625 6.171875 -8.625 6.609375 -8.09375 C 7.054688 -7.570312 7.28125 -7.097656 7.28125 -6.671875 C 7.28125 -6.253906 7.132812 -5.820312 6.84375 -5.375 C 6.976562 -5.207031 7.046875 -5.054688 7.046875 -4.921875 C 7.046875 -4.597656 6.972656 -4.039062 6.828125 -3.25 C 6.679688 -2.46875 6.59375 -1.953125 6.5625 -1.703125 C 6.539062 -1.460938 6.515625 -1.269531 6.484375 -1.125 C 6.460938 -0.976562 6.4375 -0.835938 6.40625 -0.703125 C 6.351562 -0.410156 6.25 -0.265625 6.09375 -0.265625 C 5.882812 -0.265625 5.710938 -0.445312 5.578125 -0.8125 C 5.441406 -1.175781 5.363281 -1.648438 5.34375 -2.234375 C 4.3125 -0.921875 3.351562 -0.265625 2.46875 -0.265625 C 1.9375 -0.265625 1.410156 -0.492188 0.890625 -0.953125 C 0.378906 -1.410156 0.125 -1.882812 0.125 -2.375 C 0.125 -3.0625 0.378906 -3.921875 0.890625 -4.953125 C 1.398438 -5.984375 2.0625 -6.894531 2.875 -7.6875 C 3.6875 -8.488281 4.453125 -8.890625 5.171875 -8.890625 Z M 5.96875 -5.828125 C 5.96875 -6.910156 5.753906 -7.453125 5.328125 -7.453125 C 4.867188 -7.453125 4.335938 -7.128906 3.734375 -6.484375 C 3.140625 -5.835938 2.628906 -5.109375 2.203125 -4.296875 C 1.785156 -3.484375 1.578125 -2.84375 1.578125 -2.375 C 1.578125 -2.175781 1.660156 -2.015625 1.828125 -1.890625 C 1.992188 -1.765625 2.1875 -1.703125 2.40625 -1.703125 C 2.945312 -1.703125 3.5625 -2.070312 4.25 -2.8125 C 4.9375 -3.550781 5.410156 -4.445312 5.671875 -5.5 C 5.710938 -5.675781 5.8125 -5.78125 5.96875 -5.8125 Z M 5.96875 -5.828125 "/></g></g></g><g fill="#f5f6f6" fill-opacity="1"><g transform="translate(29.497078, 20.612883)"><g><path d="M 3.96875 -12.3125 C 3.96875 -10.125 3.515625 -7.289062 2.609375 -3.8125 C 2.023438 -1.445312 1.617188 -0.265625 1.390625 -0.265625 C 1.234375 -0.265625 1.046875 -0.390625 0.828125 -0.640625 C 0.609375 -0.898438 0.5 -1.097656 0.5 -1.234375 C 0.5 -1.367188 0.664062 -2.085938 1 -3.390625 C 1.34375 -4.691406 1.679688 -6.289062 2.015625 -8.1875 C 2.359375 -10.082031 2.53125 -11.789062 2.53125 -13.3125 C 2.53125 -13.476562 2.550781 -13.59375 2.59375 -13.65625 C 2.632812 -13.726562 2.726562 -13.765625 2.875 -13.765625 C 3.03125 -13.765625 3.25 -13.597656 3.53125 -13.265625 C 3.820312 -12.941406 3.96875 -12.625 3.96875 -12.3125 Z M 3.96875 -12.3125 "/></g></g></g><g fill="#f5f6f6" fill-opacity="1"><g transform="translate(33.768899, 20.612883)"><g><path d="M 3.109375 -12.96875 C 3.335938 -12.96875 3.769531 -12.734375 4.40625 -12.265625 C 5.050781 -11.796875 5.375 -11.441406 5.375 -11.203125 C 5.375 -10.796875 5.503906 -10.128906 5.765625 -9.203125 C 6.035156 -8.273438 6.347656 -7.4375 6.703125 -6.6875 C 7.046875 -7.09375 7.632812 -7.84375 8.46875 -8.9375 C 9.300781 -10.03125 10 -10.894531 10.5625 -11.53125 C 11.132812 -12.175781 11.554688 -12.5 11.828125 -12.5 C 12.109375 -12.5 12.398438 -12.34375 12.703125 -12.03125 C 13.003906 -11.71875 13.15625 -11.40625 13.15625 -11.09375 C 13.15625 -10.78125 13.109375 -10.375 13.015625 -9.875 C 12.921875 -9.382812 12.816406 -8.925781 12.703125 -8.5 C 12.597656 -8.082031 12.441406 -7.503906 12.234375 -6.765625 C 12.035156 -6.035156 11.878906 -5.457031 11.765625 -5.03125 C 11.660156 -4.613281 11.550781 -4.160156 11.4375 -3.671875 C 11.320312 -3.191406 11.234375 -2.816406 11.171875 -2.546875 C 11.109375 -2.273438 11.035156 -1.988281 10.953125 -1.6875 C 10.878906 -1.394531 10.8125 -1.171875 10.75 -1.015625 C 10.695312 -0.859375 10.632812 -0.71875 10.5625 -0.59375 C 10.4375 -0.34375 10.253906 -0.21875 10.015625 -0.21875 C 9.785156 -0.21875 9.554688 -0.445312 9.328125 -0.90625 C 9.109375 -1.363281 9 -1.84375 9 -2.34375 C 9 -3.570312 9.351562 -5.203125 10.0625 -7.234375 C 9.863281 -6.984375 9.578125 -6.609375 9.203125 -6.109375 C 8.835938 -5.617188 8.5625 -5.257812 8.375 -5.03125 C 8.195312 -4.8125 7.976562 -4.550781 7.71875 -4.25 C 7.238281 -3.726562 6.769531 -3.46875 6.3125 -3.46875 C 5.707031 -3.46875 5.28125 -3.703125 5.03125 -4.171875 C 4.90625 -4.421875 4.734375 -4.972656 4.515625 -5.828125 C 4.296875 -6.679688 4.144531 -7.269531 4.0625 -7.59375 C 3.90625 -6.394531 3.695312 -5.304688 3.4375 -4.328125 C 3.1875 -3.359375 3.019531 -2.722656 2.9375 -2.421875 C 2.851562 -2.117188 2.742188 -1.753906 2.609375 -1.328125 C 2.378906 -0.585938 2.171875 -0.21875 1.984375 -0.21875 C 1.773438 -0.21875 1.488281 -0.492188 1.125 -1.046875 C 0.757812 -1.597656 0.578125 -2.03125 0.578125 -2.34375 C 0.578125 -2.65625 0.914062 -4.222656 1.59375 -7.046875 C 2.269531 -9.867188 2.609375 -11.648438 2.609375 -12.390625 C 2.609375 -12.773438 2.773438 -12.96875 3.109375 -12.96875 Z M 3.109375 -12.96875 "/></g></g></g><g fill="#f5f6f6" fill-opacity="1"><g transform="translate(46.929391, 20.612883)"><g><path d="M 7.828125 -5.15625 C 8.035156 -4.96875 8.140625 -4.796875 8.140625 -4.640625 C 8.140625 -4.492188 8.070312 -4.179688 7.9375 -3.703125 C 7.800781 -3.234375 7.707031 -2.863281 7.65625 -2.59375 C 7.613281 -2.332031 7.578125 -2.128906 7.546875 -1.984375 C 7.515625 -1.835938 7.492188 -1.71875 7.484375 -1.625 C 7.472656 -1.539062 7.453125 -1.429688 7.421875 -1.296875 C 7.390625 -1.171875 7.363281 -1.070312 7.34375 -1 C 7.332031 -0.925781 7.3125 -0.835938 7.28125 -0.734375 C 7.25 -0.640625 7.21875 -0.566406 7.1875 -0.515625 C 7.15625 -0.460938 7.113281 -0.40625 7.0625 -0.34375 C 7 -0.25 6.882812 -0.203125 6.71875 -0.203125 C 6.550781 -0.203125 6.347656 -0.363281 6.109375 -0.6875 C 5.878906 -1.019531 5.707031 -1.414062 5.59375 -1.875 C 4.5 -0.757812 3.582031 -0.203125 2.84375 -0.203125 C 2.34375 -0.203125 1.800781 -0.476562 1.21875 -1.03125 C 0.632812 -1.582031 0.34375 -2.132812 0.34375 -2.6875 C 0.34375 -3.238281 0.59375 -4.023438 1.09375 -5.046875 C 1.59375 -6.066406 2.273438 -7.007812 3.140625 -7.875 C 4.003906 -8.75 4.859375 -9.1875 5.703125 -9.1875 C 6.191406 -9.1875 6.753906 -8.898438 7.390625 -8.328125 C 8.035156 -7.765625 8.359375 -7.25 8.359375 -6.78125 C 8.359375 -6.3125 8.179688 -5.769531 7.828125 -5.15625 Z M 2.765625 -2.40625 C 3.234375 -2.40625 3.851562 -2.71875 4.625 -3.34375 C 5.394531 -3.976562 5.875 -4.78125 6.0625 -5.75 C 6.070312 -5.882812 6.171875 -5.960938 6.359375 -5.984375 C 6.316406 -6.648438 6.203125 -6.984375 6.015625 -6.984375 C 5.554688 -6.984375 5.039062 -6.679688 4.46875 -6.078125 C 3.894531 -5.472656 3.421875 -4.828125 3.046875 -4.140625 C 2.679688 -3.453125 2.5 -2.945312 2.5 -2.625 C 2.5 -2.53125 2.515625 -2.46875 2.546875 -2.4375 C 2.578125 -2.414062 2.648438 -2.40625 2.765625 -2.40625 Z M 2.765625 -2.40625 "/></g></g></g><g fill="#f5f6f6" fill-opacity="1"><g transform="translate(55.807496, 20.612883)"><g><path d="M 1.390625 -6.25 L 1.28125 -8.21875 C 1.28125 -8.863281 1.484375 -9.1875 1.890625 -9.1875 C 2.128906 -9.1875 2.359375 -9.097656 2.578125 -8.921875 C 2.804688 -8.753906 2.976562 -8.484375 3.09375 -8.109375 C 3.488281 -8.460938 3.921875 -8.742188 4.390625 -8.953125 C 4.859375 -9.171875 5.273438 -9.28125 5.640625 -9.28125 C 6.484375 -9.28125 6.90625 -9.078125 6.90625 -8.671875 C 6.90625 -8.460938 6.867188 -8.304688 6.796875 -8.203125 C 6.722656 -8.109375 6.664062 -8.035156 6.625 -7.984375 C 6.582031 -7.941406 6.507812 -7.878906 6.40625 -7.796875 C 6.3125 -7.722656 6.242188 -7.671875 6.203125 -7.640625 C 5.929688 -7.460938 5.738281 -7.34375 5.625 -7.28125 C 5.101562 -6.945312 4.65625 -6.550781 4.28125 -6.09375 C 3.90625 -5.632812 3.628906 -5 3.453125 -4.1875 C 3.128906 -2.851562 2.820312 -1.859375 2.53125 -1.203125 C 2.238281 -0.546875 1.90625 -0.21875 1.53125 -0.21875 C 1.164062 -0.21875 0.894531 -0.390625 0.71875 -0.734375 C 0.539062 -1.085938 0.453125 -1.414062 0.453125 -1.71875 C 0.453125 -2.03125 0.5625 -2.492188 0.78125 -3.109375 C 1.007812 -3.722656 1.164062 -4.253906 1.25 -4.703125 C 1.34375 -5.148438 1.390625 -5.664062 1.390625 -6.25 Z M 1.390625 -6.25 "/></g></g></g><g fill="#f5f6f6" fill-opacity="1"><g transform="translate(62.109207, 20.612883)"><g><path d="M 0.4375 -2.9375 C 0.4375 -3.75 0.691406 -4.640625 1.203125 -5.609375 C 1.710938 -6.585938 2.378906 -7.425781 3.203125 -8.125 C 4.035156 -8.820312 4.851562 -9.171875 5.65625 -9.171875 C 6.0625 -9.171875 6.476562 -8.90625 6.90625 -8.375 C 7.332031 -7.851562 7.546875 -7.382812 7.546875 -6.96875 C 7.546875 -6.664062 7.410156 -6.515625 7.140625 -6.515625 C 6.992188 -6.515625 6.800781 -6.578125 6.5625 -6.703125 C 6.320312 -6.828125 6.070312 -6.890625 5.8125 -6.890625 C 5.5625 -6.890625 5.195312 -6.671875 4.71875 -6.234375 C 4.25 -5.804688 3.832031 -5.285156 3.46875 -4.671875 C 3.101562 -4.066406 2.921875 -3.585938 2.921875 -3.234375 C 2.921875 -2.890625 2.988281 -2.664062 3.125 -2.5625 C 3.257812 -2.457031 3.582031 -2.40625 4.09375 -2.40625 C 4.613281 -2.40625 5.082031 -2.453125 5.5 -2.546875 C 5.925781 -2.640625 6.238281 -2.734375 6.4375 -2.828125 C 6.644531 -2.921875 6.832031 -2.96875 7 -2.96875 C 7.320312 -2.96875 7.484375 -2.832031 7.484375 -2.5625 C 7.484375 -2.050781 7.035156 -1.53125 6.140625 -1 C 5.242188 -0.46875 4.351562 -0.203125 3.46875 -0.203125 C 2.894531 -0.203125 2.242188 -0.519531 1.515625 -1.15625 C 0.796875 -1.789062 0.4375 -2.382812 0.4375 -2.9375 Z M 0.4375 -2.9375 "/></g></g></g><g fill="#f5f6f6" fill-opacity="1"><g transform="translate(70.62175, 20.612883)"><g><path d="M 2.890625 -1.984375 C 3.515625 -2.265625 4.054688 -2.828125 4.515625 -3.671875 C 4.984375 -4.515625 5.21875 -5.304688 5.21875 -6.046875 C 5.21875 -6.796875 5.113281 -7.3125 4.90625 -7.59375 C 4.40625 -7.300781 3.910156 -6.691406 3.421875 -5.765625 C 2.929688 -4.835938 2.6875 -4.019531 2.6875 -3.3125 C 2.6875 -2.613281 2.753906 -2.171875 2.890625 -1.984375 Z M 0.34375 -3.140625 C 0.34375 -4.585938 0.789062 -5.957031 1.6875 -7.25 C 2.59375 -8.550781 3.484375 -9.203125 4.359375 -9.203125 C 5.242188 -9.203125 5.988281 -8.890625 6.59375 -8.265625 C 7.195312 -7.648438 7.5 -6.90625 7.5 -6.03125 C 7.5 -5.15625 7.289062 -4.265625 6.875 -3.359375 C 6.457031 -2.453125 5.867188 -1.695312 5.109375 -1.09375 C 4.359375 -0.5 3.554688 -0.203125 2.703125 -0.203125 C 2.054688 -0.203125 1.5 -0.488281 1.03125 -1.0625 C 0.570312 -1.632812 0.34375 -2.328125 0.34375 -3.140625 Z M 0.34375 -3.140625 "/></g></g></g><g fill="#f5f6f6" fill-opacity="1"><g transform="translate(78.559827, 20.612883)"><g><path d="M 2.890625 -14.0625 C 3.171875 -14.0625 3.53125 -13.804688 3.96875 -13.296875 C 4.40625 -12.785156 4.625 -12.296875 4.625 -11.828125 C 4.625 -11.367188 4.554688 -10.546875 4.421875 -9.359375 C 4.285156 -8.171875 4.140625 -7.222656 3.984375 -6.515625 C 3.023438 -2.304688 2.351562 -0.203125 1.96875 -0.203125 C 1.707031 -0.203125 1.390625 -0.40625 1.015625 -0.8125 C 0.640625 -1.226562 0.453125 -1.570312 0.453125 -1.84375 C 0.453125 -1.863281 0.609375 -2.46875 0.921875 -3.65625 C 1.234375 -4.84375 1.546875 -6.363281 1.859375 -8.21875 C 2.179688 -10.082031 2.34375 -11.863281 2.34375 -13.5625 C 2.34375 -13.894531 2.523438 -14.0625 2.890625 -14.0625 Z M 2.890625 -14.0625 "/></g></g></g><g fill="#f5f6f6" fill-opacity="1"><g transform="translate(83.190364, 20.612883)"><g><path d="M 2.140625 -11.359375 C 2.140625 -11.660156 2.273438 -11.972656 2.546875 -12.296875 C 2.816406 -12.617188 3.082031 -12.78125 3.34375 -12.78125 C 3.613281 -12.78125 3.925781 -12.460938 4.28125 -11.828125 C 4.644531 -11.203125 4.828125 -10.75 4.828125 -10.46875 C 4.828125 -10.1875 4.734375 -9.96875 4.546875 -9.8125 C 4.359375 -9.664062 4.164062 -9.59375 3.96875 -9.59375 C 3.632812 -9.59375 3.242188 -9.8125 2.796875 -10.25 C 2.359375 -10.6875 2.140625 -11.054688 2.140625 -11.359375 Z M 2.40625 -9.1875 C 2.8125 -9.1875 3.171875 -8.953125 3.484375 -8.484375 C 3.804688 -8.023438 3.96875 -7.582031 3.96875 -7.15625 C 3.96875 -6.9375 3.765625 -6.144531 3.359375 -4.78125 C 2.960938 -3.414062 2.566406 -2.125 2.171875 -0.90625 C 2.035156 -0.445312 1.753906 -0.21875 1.328125 -0.21875 C 1.066406 -0.21875 0.835938 -0.3125 0.640625 -0.5 C 0.453125 -0.695312 0.359375 -0.945312 0.359375 -1.25 C 0.359375 -1.5625 0.503906 -2.328125 0.796875 -3.546875 C 1.097656 -4.773438 1.328125 -5.820312 1.484375 -6.6875 C 1.640625 -7.550781 1.785156 -8.179688 1.921875 -8.578125 C 2.054688 -8.984375 2.21875 -9.1875 2.40625 -9.1875 Z M 2.40625 -9.1875 "/></g></g></g><g fill="#f5f6f6" fill-opacity="1"><g transform="translate(87.716455, 20.612883)"><g><path d="M 6.84375 -9.1875 C 7.445312 -9.1875 7.976562 -8.914062 8.4375 -8.375 C 8.894531 -7.84375 9.125 -7.269531 9.125 -6.65625 C 9.125 -5.664062 8.960938 -4.632812 8.640625 -3.5625 C 8.316406 -2.488281 7.96875 -1.660156 7.59375 -1.078125 C 7.21875 -0.492188 6.832031 -0.203125 6.4375 -0.203125 C 6.050781 -0.203125 5.859375 -0.476562 5.859375 -1.03125 C 5.859375 -1.445312 6.050781 -2.285156 6.4375 -3.546875 C 6.726562 -4.597656 6.875 -5.347656 6.875 -5.796875 C 6.875 -6.242188 6.816406 -6.46875 6.703125 -6.46875 C 6.546875 -6.46875 6.394531 -6.390625 6.25 -6.234375 C 6.113281 -6.085938 6 -5.957031 5.90625 -5.84375 C 5.8125 -5.726562 5.703125 -5.582031 5.578125 -5.40625 C 5.453125 -5.226562 5.347656 -5.066406 5.265625 -4.921875 C 5.179688 -4.773438 5.070312 -4.585938 4.9375 -4.359375 C 4.800781 -4.128906 4.691406 -3.941406 4.609375 -3.796875 C 4.523438 -3.648438 4.421875 -3.460938 4.296875 -3.234375 C 3.222656 -1.210938 2.378906 -0.203125 1.765625 -0.203125 C 1.515625 -0.203125 1.203125 -0.414062 0.828125 -0.84375 C 0.460938 -1.269531 0.28125 -1.582031 0.28125 -1.78125 C 0.28125 -1.90625 0.363281 -2.175781 0.53125 -2.59375 C 0.695312 -3.019531 0.816406 -3.347656 0.890625 -3.578125 C 0.972656 -3.804688 1.039062 -4.046875 1.09375 -4.296875 C 1.144531 -4.554688 1.1875 -4.832031 1.21875 -5.125 C 1.25 -5.414062 1.273438 -5.644531 1.296875 -5.8125 C 1.316406 -5.976562 1.335938 -6.234375 1.359375 -6.578125 C 1.460938 -8.085938 1.550781 -8.921875 1.625 -9.078125 C 1.695312 -9.242188 1.78125 -9.328125 1.875 -9.328125 C 2.320312 -9.328125 2.75 -9.144531 3.15625 -8.78125 C 3.5625 -8.414062 3.765625 -8.082031 3.765625 -7.78125 C 3.765625 -7.0625 3.578125 -6.03125 3.203125 -4.6875 C 3.953125 -6.007812 4.640625 -7.085938 5.265625 -7.921875 C 5.890625 -8.765625 6.414062 -9.1875 6.84375 -9.1875 Z M 6.84375 -9.1875 "/></g></g></g><g fill="#f5f6f6" fill-opacity="1"><g transform="translate(97.360513, 20.612883)"><g><path d="M 2.890625 -1.984375 C 3.515625 -2.265625 4.054688 -2.828125 4.515625 -3.671875 C 4.984375 -4.515625 5.21875 -5.304688 5.21875 -6.046875 C 5.21875 -6.796875 5.113281 -7.3125 4.90625 -7.59375 C 4.40625 -7.300781 3.910156 -6.691406 3.421875 -5.765625 C 2.929688 -4.835938 2.6875 -4.019531 2.6875 -3.3125 C 2.6875 -2.613281 2.753906 -2.171875 2.890625 -1.984375 Z M 0.34375 -3.140625 C 0.34375 -4.585938 0.789062 -5.957031 1.6875 -7.25 C 2.59375 -8.550781 3.484375 -9.203125 4.359375 -9.203125 C 5.242188 -9.203125 5.988281 -8.890625 6.59375 -8.265625 C 7.195312 -7.648438 7.5 -6.90625 7.5 -6.03125 C 7.5 -5.15625 7.289062 -4.265625 6.875 -3.359375 C 6.457031 -2.453125 5.867188 -1.695312 5.109375 -1.09375 C 4.359375 -0.5 3.554688 -0.203125 2.703125 -0.203125 C 2.054688 -0.203125 1.5 -0.488281 1.03125 -1.0625 C 0.570312 -1.632812 0.34375 -2.328125 0.34375 -3.140625 Z M 0.34375 -3.140625 "/></g></g></g></svg>