<svg width="24" height="24" viewBox="0 0 24 24" fill="none" xmlns="http://www.w3.org/2000/svg">
<g id="React">
<path id="Vector" fill-rule="evenodd" clip-rule="evenodd" d="M18.8252 8.0438C19.2752 8.17505 19.7064 8.32505 20.1189 8.47505C22.4627 9.37505 23.7377 10.6125 23.7377 12C23.7377 13.3876 22.4627 14.6251 20.1189 15.5251C19.7064 15.6938 19.2752 15.8251 18.8252 15.9563C18.9377 16.4063 19.0314 16.8563 19.1064 17.2875C19.5002 19.7438 19.0689 21.4876 17.8689 22.1813C17.5127 22.3876 17.1189 22.4813 16.6689 22.4813C15.3564 22.4813 13.6877 21.5063 12.0002 19.8751C10.3314 21.5063 8.66269 22.4813 7.33144 22.4813C6.88144 22.4813 6.4877 22.3876 6.13144 22.1813C4.93145 21.5063 4.5002 19.7626 4.89395 17.2875C4.96895 16.8563 5.0627 16.4063 5.1752 15.9563C4.72519 15.8251 4.29395 15.6751 3.88145 15.5251C1.55645 14.6251 0.262695 13.3876 0.262695 12C0.262695 10.6125 1.5377 9.37505 3.88145 8.47505C4.29395 8.3063 4.72519 8.17505 5.1752 8.0438C5.0627 7.5938 4.96895 7.1438 4.89395 6.71255C4.5002 4.2563 4.93145 2.51255 6.13144 1.8188C6.4877 1.61255 6.88144 1.5188 7.33144 1.5188C8.64394 1.5188 10.3127 2.4938 12.0002 4.12505C13.6877 2.4938 15.3564 1.5188 16.6689 1.5188C17.1189 1.5188 17.5127 1.61255 17.8689 1.8188C19.0689 2.4938 19.5002 4.23755 19.1064 6.71255C19.0314 7.1438 18.9377 7.5938 18.8252 8.0438ZM18.0564 6.56255C18.3752 4.5938 18.1127 3.2063 17.3439 2.7563C17.1564 2.6438 16.9314 2.58755 16.6877 2.58755C15.5439 2.58755 14.1377 3.52505 12.7502 4.8938C13.4064 5.62505 14.0627 6.4313 14.7002 7.3313C15.7877 7.42505 16.8189 7.57505 17.7939 7.80005C17.9064 7.3688 18.0002 6.9563 18.0564 6.56255ZM14.1002 15.675C14.5127 15.0751 14.9064 14.475 15.2439 13.8751C15.6002 13.2376 15.9189 12.6188 16.2377 12.0001L16.2377 12C15.9377 11.3813 15.6002 10.7438 15.2439 10.125C14.9064 9.52505 14.5314 8.92505 14.1189 8.32505C13.4439 8.2688 12.7502 8.25005 12.0189 8.25005C11.3064 8.25005 10.6127 8.2688 9.91894 8.32505C9.50644 8.92505 9.11269 9.52505 8.77519 10.125C8.41894 10.7438 8.08144 11.3813 7.78144 12C8.08144 12.6188 8.41894 13.2563 8.77519 13.8751C9.11269 14.475 9.48769 15.0751 9.90019 15.675C10.5752 15.7313 11.2689 15.7501 12.0002 15.7501C12.7127 15.7501 13.4064 15.7313 14.1002 15.675ZM17.5127 15.1876C17.3064 14.55 17.0814 13.9125 16.8002 13.2563C16.7278 13.3879 16.6555 13.5218 16.5823 13.6572C16.4469 13.9076 16.3087 14.1632 16.1627 14.4188C15.9816 14.7645 15.7716 15.0958 15.5708 15.4125C15.5429 15.4566 15.5151 15.5003 15.4877 15.5438C16.2002 15.4501 16.8752 15.3376 17.5127 15.1876ZM10.7064 16.7813C11.1189 17.3251 11.5502 17.8501 12.0002 18.3376C12.4502 17.8501 12.8814 17.3251 13.2939 16.7813C12.8627 16.8001 12.4314 16.8188 12.0002 16.8188C11.5689 16.8188 11.1377 16.8001 10.7064 16.7813ZM6.48769 15.1688C7.12519 15.3188 7.80019 15.4313 8.51269 15.5251C8.45644 15.4313 8.40019 15.3387 8.34394 15.2461C8.17519 14.9684 8.00644 14.6907 7.83769 14.3813C7.67126 14.1039 7.51509 13.8163 7.36158 13.5335C7.30757 13.434 7.25388 13.3352 7.20019 13.2375C6.91894 13.8938 6.69394 14.5501 6.48769 15.1688ZM6.48769 8.81255C6.69394 9.45005 6.91894 10.0875 7.20019 10.7438C7.27256 10.6122 7.34492 10.4783 7.4181 10.343C7.55348 10.0925 7.69164 9.8369 7.83769 9.5813C8.01877 9.2356 8.22876 8.90436 8.42958 8.58757C8.4575 8.54353 8.48523 8.49978 8.51269 8.4563C7.80019 8.55005 7.12519 8.66255 6.48769 8.81255ZM13.2939 7.2188C12.8814 6.67505 12.4502 6.15005 12.0002 5.66255C11.5502 6.15005 11.1189 6.67505 10.7064 7.2188L10.7065 7.2188C11.1377 7.20005 11.569 7.1813 12.0002 7.1813C12.4314 7.1813 12.8627 7.20005 13.2939 7.2188L13.2939 7.2188ZM15.4877 8.47505L16.1627 9.60005C16.3877 9.97502 16.5939 10.3687 16.8001 10.7625L16.8002 10.7626C17.0814 10.1063 17.3064 9.45005 17.5127 8.8313C16.8752 8.6813 16.2002 8.5688 15.4877 8.47505ZM6.65644 2.7563C5.88769 3.2063 5.6252 4.5938 5.94394 6.56255C5.95106 6.59989 5.95817 6.6374 5.96531 6.67507C6.03351 7.0347 6.10461 7.40969 6.20644 7.80005C7.18144 7.5938 8.21269 7.42505 9.30019 7.3313C9.93769 6.4313 10.5939 5.6063 11.2502 4.8938C9.84394 3.5063 8.43769 2.58755 7.31269 2.58755C7.06894 2.58755 6.84394 2.6438 6.65644 2.7563ZM4.25645 9.48755C2.38145 10.1813 1.3127 11.1188 1.3127 12C1.3127 13.05 2.86895 14.175 5.45645 14.925C5.7377 13.9875 6.13144 13.0125 6.58144 12.0188C6.13144 11.025 5.75644 10.0313 5.45645 9.0938C5.04394 9.2063 4.63145 9.33755 4.25645 9.48755ZM5.94394 17.4376C5.6252 19.4063 5.88769 20.7938 6.65644 21.2438C6.84394 21.3563 7.06894 21.4125 7.31269 21.4125C8.45644 21.4125 9.86269 20.4751 11.2502 19.1063C10.5939 18.3751 9.93769 17.5688 9.30019 16.6688C8.21269 16.5751 7.18144 16.4251 6.20644 16.2001C6.09394 16.6313 6.0002 17.0438 5.94394 17.4376ZM17.3439 21.2438C18.1127 20.7938 18.3752 19.4063 18.0564 17.4376C18.0493 17.4002 18.0422 17.3627 18.0351 17.325C17.9669 16.9654 17.8958 16.5904 17.7939 16.2001C16.8189 16.4063 15.7877 16.5751 14.7002 16.6688C14.0627 17.5688 13.4064 18.3938 12.7502 19.1063C14.1564 20.4938 15.5627 21.4125 16.6877 21.4125C16.9314 21.4125 17.1564 21.3563 17.3439 21.2438ZM18.5439 14.9063C18.9564 14.7938 19.3689 14.6625 19.7439 14.5126C21.6002 13.8188 22.6877 12.8813 22.6877 12C22.6877 10.9501 21.1314 9.82505 18.5439 9.07505C18.2627 10.0126 17.8689 10.9875 17.4189 11.9813C17.8689 12.975 18.2439 13.9688 18.5439 14.9063ZM14.1373 12C14.1373 13.1806 13.1803 14.1375 11.9998 14.1375C10.8193 14.1375 9.8623 13.1806 9.8623 12C9.8623 10.8195 10.8193 9.86255 11.9998 9.86255C13.1803 9.86255 14.1373 10.8195 14.1373 12Z" fill="#9955E8"/>
</g>
</svg>
